<svg width="200" height="200" viewBox="0 0 200 200" fill="none" xmlns="http://www.w3.org/2000/svg">
<path d="M35 140C32.25 140 30 142.25 30 145C30 158.813 41.1875 170 55 170H145C158.813 170 170 158.813 170 145C170 142.25 167.75 140 165 140H35ZM30 83.125C30 86.9375 33.0937 90 36.875 90H163.125C166.937 90 170 86.9063 170 83.125C170 77.75 169.188 72.375 166.625 67.6562C159.688 54.9063 140.906 30 100 30C59.0938 30 40.3125 54.875 33.375 67.6562C30.8125 72.375 30 77.75 30 83.125ZM20 115C20 120.531 24.4687 125 30 125H170C175.531 125 180 120.531 180 115C180 109.469 175.531 105 170 105H30C24.4687 105 20 109.469 20 115ZM100 42.5C104.156 42.5 107.5 45.8437 107.5 50C107.5 54.1563 104.156 57.5 100 57.5C95.8437 57.5 92.5 54.1563 92.5 50C92.5 45.8437 95.8437 42.5 100 42.5ZM57.5 60C57.5 55.8437 60.8437 52.5 65 52.5C69.1563 52.5 72.5 55.8437 72.5 60C72.5 64.1563 69.1563 67.5 65 67.5C60.8437 67.5 57.5 64.1563 57.5 60ZM135 52.5C139.156 52.5 142.5 55.8437 142.5 60C142.5 64.1563 139.156 67.5 135 67.5C130.844 67.5 127.5 64.1563 127.5 60C127.5 55.8437 130.844 52.5 135 52.5Z" fill="black"/>
</svg>
